# xmcd
#
# Track frame offsets: 
#        150
#        19305
#        43661
#        66413
#        88357
#        120419
#        138774
#        159169
#        177074
#        197524
#        218630
#        241029
#        259586
#        276815
#
# Disc length: 3985 seconds
#
# Revision: 1
# Processed by: cddbd v1.5.2PL0 Copyright (c) Steve Scherf et al.
# Submitted via: ExactAudioCopy v0.99pb5
#
DISCID=b90f8f0e
DTITLE=Luis Alberto - Salsa Urbana
DYEAR=2000
DGENRE=Salsa
TTITLE0=Amour Mas Bello
TTITLE1=Guaguanco del Adios
TTITLE2=Me Encanta Como Bailas
TTITLE3=Te Voy a Arrancar de Mi
TTITLE4=Marejada Feliz
TTITLE5=Volver, Volver
TTITLE6=Estar Contigo
TTITLE7=Quiero Verte a Solas
TTITLE8=Lucero de la Mañana
TTITLE9=Mi Corazon Pide Vacaciones
TTITLE10=Tu No, Yo Si
TTITLE11=Bailando Asi
TTITLE12=Coge Pa' la Cola
TTITLE13=Reina de Reinas
EXTD=
EXTT0=
EXTT1=
EXTT2=
EXTT3=
EXTT4=
EXTT5=
EXTT6=
EXTT7=
EXTT8=
EXTT9=
EXTT10=
EXTT11=
EXTT12=
EXTT13=
PLAYORDER=
